<mxfile host="app.diagrams.net" modified="2023-06-21T17:50:32.452Z" agent="Mozilla/5.0 (Windows NT 10.0; Win64; x64) AppleWebKit/537.36 (KHTML, like Gecko) Chrome/114.0.0.0 Safari/537.36 Edg/114.0.1823.51" etag="NCs9SjPiteU572d-g9MG" version="21.5.0" type="github">
  <diagram name="PÃ¡gina-1" id="TxvYG9C696smqfMs09eh">
    <mxGraphModel dx="1434" dy="796" grid="1" gridSize="10" guides="1" tooltips="1" connect="1" arrows="1" fold="1" page="1" pageScale="1" pageWidth="827" pageHeight="1169" math="0" shadow="0">
      <root>
        <mxCell id="0" />
        <mxCell id="1" parent="0" />
        <mxCell id="JQVQvyb46V_bQaol9m_W-25" style="edgeStyle=orthogonalEdgeStyle;rounded=0;orthogonalLoop=1;jettySize=auto;html=1;" edge="1" parent="1" source="JQVQvyb46V_bQaol9m_W-5" target="JQVQvyb46V_bQaol9m_W-19">
          <mxGeometry relative="1" as="geometry" />
        </mxCell>
        <mxCell id="JQVQvyb46V_bQaol9m_W-5" value="CLIENTE" style="whiteSpace=wrap;html=1;align=center;" vertex="1" parent="1">
          <mxGeometry x="160" y="400" width="100" height="40" as="geometry" />
        </mxCell>
        <mxCell id="JQVQvyb46V_bQaol9m_W-6" value="PRODUCTO" style="whiteSpace=wrap;html=1;align=center;" vertex="1" parent="1">
          <mxGeometry x="560" y="400" width="100" height="40" as="geometry" />
        </mxCell>
        <mxCell id="JQVQvyb46V_bQaol9m_W-30" style="edgeStyle=orthogonalEdgeStyle;rounded=0;orthogonalLoop=1;jettySize=auto;html=1;entryX=0.5;entryY=1;entryDx=0;entryDy=0;" edge="1" parent="1" source="JQVQvyb46V_bQaol9m_W-7" target="JQVQvyb46V_bQaol9m_W-31">
          <mxGeometry relative="1" as="geometry">
            <mxPoint x="610" y="650" as="targetPoint" />
          </mxGeometry>
        </mxCell>
        <mxCell id="JQVQvyb46V_bQaol9m_W-7" value="PROVEEDOR" style="whiteSpace=wrap;html=1;align=center;" vertex="1" parent="1">
          <mxGeometry x="560" y="730" width="100" height="40" as="geometry" />
        </mxCell>
        <mxCell id="JQVQvyb46V_bQaol9m_W-14" style="edgeStyle=orthogonalEdgeStyle;rounded=0;orthogonalLoop=1;jettySize=auto;html=1;entryX=0.5;entryY=0;entryDx=0;entryDy=0;" edge="1" parent="1" source="JQVQvyb46V_bQaol9m_W-8" target="JQVQvyb46V_bQaol9m_W-5">
          <mxGeometry relative="1" as="geometry" />
        </mxCell>
        <mxCell id="JQVQvyb46V_bQaol9m_W-8" value="nombre" style="ellipse;whiteSpace=wrap;html=1;align=center;" vertex="1" parent="1">
          <mxGeometry x="30" y="240" width="100" height="40" as="geometry" />
        </mxCell>
        <mxCell id="JQVQvyb46V_bQaol9m_W-15" style="edgeStyle=orthogonalEdgeStyle;rounded=0;orthogonalLoop=1;jettySize=auto;html=1;entryX=0.41;entryY=-0.05;entryDx=0;entryDy=0;entryPerimeter=0;" edge="1" parent="1" source="JQVQvyb46V_bQaol9m_W-9" target="JQVQvyb46V_bQaol9m_W-5">
          <mxGeometry relative="1" as="geometry" />
        </mxCell>
        <mxCell id="JQVQvyb46V_bQaol9m_W-9" value="apellido" style="ellipse;whiteSpace=wrap;html=1;align=center;" vertex="1" parent="1">
          <mxGeometry x="30" y="320" width="100" height="40" as="geometry" />
        </mxCell>
        <mxCell id="JQVQvyb46V_bQaol9m_W-18" style="edgeStyle=orthogonalEdgeStyle;rounded=0;orthogonalLoop=1;jettySize=auto;html=1;entryX=0.5;entryY=1;entryDx=0;entryDy=0;" edge="1" parent="1" source="JQVQvyb46V_bQaol9m_W-11" target="JQVQvyb46V_bQaol9m_W-5">
          <mxGeometry relative="1" as="geometry" />
        </mxCell>
        <mxCell id="JQVQvyb46V_bQaol9m_W-11" value="fecha de nacimiento" style="ellipse;whiteSpace=wrap;html=1;align=center;" vertex="1" parent="1">
          <mxGeometry x="30" y="564.5" width="100" height="40" as="geometry" />
        </mxCell>
        <mxCell id="JQVQvyb46V_bQaol9m_W-17" style="edgeStyle=orthogonalEdgeStyle;rounded=0;orthogonalLoop=1;jettySize=auto;html=1;entryX=0.4;entryY=1.025;entryDx=0;entryDy=0;entryPerimeter=0;" edge="1" parent="1" source="JQVQvyb46V_bQaol9m_W-12" target="JQVQvyb46V_bQaol9m_W-5">
          <mxGeometry relative="1" as="geometry" />
        </mxCell>
        <mxCell id="JQVQvyb46V_bQaol9m_W-12" value="direccion" style="ellipse;whiteSpace=wrap;html=1;align=center;" vertex="1" parent="1">
          <mxGeometry x="30" y="480" width="100" height="40" as="geometry" />
        </mxCell>
        <mxCell id="JQVQvyb46V_bQaol9m_W-16" value="" style="edgeStyle=orthogonalEdgeStyle;rounded=0;orthogonalLoop=1;jettySize=auto;html=1;" edge="1" parent="1" source="JQVQvyb46V_bQaol9m_W-13" target="JQVQvyb46V_bQaol9m_W-5">
          <mxGeometry relative="1" as="geometry" />
        </mxCell>
        <mxCell id="JQVQvyb46V_bQaol9m_W-13" value="rfc" style="ellipse;whiteSpace=wrap;html=1;align=center;fontStyle=4;" vertex="1" parent="1">
          <mxGeometry x="30" y="400" width="100" height="40" as="geometry" />
        </mxCell>
        <mxCell id="JQVQvyb46V_bQaol9m_W-26" style="edgeStyle=orthogonalEdgeStyle;rounded=0;orthogonalLoop=1;jettySize=auto;html=1;entryX=0;entryY=0.5;entryDx=0;entryDy=0;" edge="1" parent="1" source="JQVQvyb46V_bQaol9m_W-19" target="JQVQvyb46V_bQaol9m_W-6">
          <mxGeometry relative="1" as="geometry" />
        </mxCell>
        <mxCell id="JQVQvyb46V_bQaol9m_W-19" value="compra" style="shape=rhombus;perimeter=rhombusPerimeter;whiteSpace=wrap;html=1;align=center;" vertex="1" parent="1">
          <mxGeometry x="353.5" y="390" width="120" height="60" as="geometry" />
        </mxCell>
        <mxCell id="JQVQvyb46V_bQaol9m_W-28" style="edgeStyle=orthogonalEdgeStyle;rounded=0;orthogonalLoop=1;jettySize=auto;html=1;entryX=1;entryY=0.5;entryDx=0;entryDy=0;" edge="1" parent="1" source="JQVQvyb46V_bQaol9m_W-20" target="JQVQvyb46V_bQaol9m_W-6">
          <mxGeometry relative="1" as="geometry" />
        </mxCell>
        <mxCell id="JQVQvyb46V_bQaol9m_W-20" value="nombre" style="ellipse;whiteSpace=wrap;html=1;align=center;" vertex="1" parent="1">
          <mxGeometry x="700" y="400" width="100" height="40" as="geometry" />
        </mxCell>
        <mxCell id="JQVQvyb46V_bQaol9m_W-29" style="edgeStyle=orthogonalEdgeStyle;rounded=0;orthogonalLoop=1;jettySize=auto;html=1;" edge="1" parent="1" source="JQVQvyb46V_bQaol9m_W-22">
          <mxGeometry relative="1" as="geometry">
            <mxPoint x="643" y="440" as="targetPoint" />
          </mxGeometry>
        </mxCell>
        <mxCell id="JQVQvyb46V_bQaol9m_W-22" value="precio" style="ellipse;whiteSpace=wrap;html=1;align=center;" vertex="1" parent="1">
          <mxGeometry x="700" y="480" width="100" height="40" as="geometry" />
        </mxCell>
        <mxCell id="JQVQvyb46V_bQaol9m_W-27" style="edgeStyle=orthogonalEdgeStyle;rounded=0;orthogonalLoop=1;jettySize=auto;html=1;" edge="1" parent="1" source="JQVQvyb46V_bQaol9m_W-24" target="JQVQvyb46V_bQaol9m_W-6">
          <mxGeometry relative="1" as="geometry" />
        </mxCell>
        <mxCell id="JQVQvyb46V_bQaol9m_W-24" value="codigo" style="ellipse;whiteSpace=wrap;html=1;align=center;fontStyle=4;" vertex="1" parent="1">
          <mxGeometry x="700" y="320" width="100" height="40" as="geometry" />
        </mxCell>
        <mxCell id="JQVQvyb46V_bQaol9m_W-32" style="edgeStyle=orthogonalEdgeStyle;rounded=0;orthogonalLoop=1;jettySize=auto;html=1;entryX=0.5;entryY=1;entryDx=0;entryDy=0;" edge="1" parent="1" source="JQVQvyb46V_bQaol9m_W-31" target="JQVQvyb46V_bQaol9m_W-6">
          <mxGeometry relative="1" as="geometry" />
        </mxCell>
        <mxCell id="JQVQvyb46V_bQaol9m_W-31" value="vende" style="shape=rhombus;perimeter=rhombusPerimeter;whiteSpace=wrap;html=1;align=center;" vertex="1" parent="1">
          <mxGeometry x="550" y="585" width="120" height="60" as="geometry" />
        </mxCell>
        <mxCell id="JQVQvyb46V_bQaol9m_W-36" style="edgeStyle=orthogonalEdgeStyle;rounded=0;orthogonalLoop=1;jettySize=auto;html=1;entryX=0;entryY=0.5;entryDx=0;entryDy=0;" edge="1" parent="1" source="JQVQvyb46V_bQaol9m_W-33" target="JQVQvyb46V_bQaol9m_W-7">
          <mxGeometry relative="1" as="geometry" />
        </mxCell>
        <mxCell id="JQVQvyb46V_bQaol9m_W-33" value="rfc" style="ellipse;whiteSpace=wrap;html=1;align=center;fontStyle=4;" vertex="1" parent="1">
          <mxGeometry x="420" y="790" width="100" height="40" as="geometry" />
        </mxCell>
        <mxCell id="JQVQvyb46V_bQaol9m_W-38" style="edgeStyle=orthogonalEdgeStyle;rounded=0;orthogonalLoop=1;jettySize=auto;html=1;entryX=1;entryY=0.5;entryDx=0;entryDy=0;" edge="1" parent="1" source="JQVQvyb46V_bQaol9m_W-34" target="JQVQvyb46V_bQaol9m_W-7">
          <mxGeometry relative="1" as="geometry" />
        </mxCell>
        <mxCell id="JQVQvyb46V_bQaol9m_W-34" value="nombre" style="ellipse;whiteSpace=wrap;html=1;align=center;" vertex="1" parent="1">
          <mxGeometry x="700" y="790" width="100" height="40" as="geometry" />
        </mxCell>
        <mxCell id="JQVQvyb46V_bQaol9m_W-37" style="edgeStyle=orthogonalEdgeStyle;rounded=0;orthogonalLoop=1;jettySize=auto;html=1;" edge="1" parent="1" source="JQVQvyb46V_bQaol9m_W-35">
          <mxGeometry relative="1" as="geometry">
            <mxPoint x="610" y="780" as="targetPoint" />
          </mxGeometry>
        </mxCell>
        <mxCell id="JQVQvyb46V_bQaol9m_W-35" value="direccion" style="ellipse;whiteSpace=wrap;html=1;align=center;" vertex="1" parent="1">
          <mxGeometry x="560" y="790" width="100" height="40" as="geometry" />
        </mxCell>
      </root>
    </mxGraphModel>
  </diagram>
</mxfile>
